<svg xmlns="http://www.w3.org/2000/svg" version="1.1" xmlns:xlink="http://www.w3.org/1999/xlink" xmlns:svgjs="http://svgjs.com/svgjs" width="1000" height="1000"><rect width="1000" height="1000" rx="50" ry="50" fill="#ffffff"></rect><g transform="matrix(15.909090909090908,0,0,15.909090909090908,150.00446547161448,319.39513416723776)"><svg xmlns="http://www.w3.org/2000/svg" version="1.1" xmlns:xlink="http://www.w3.org/1999/xlink" xmlns:svgjs="http://svgjs.com/svgjs" width="44" height="23"><svg width="44" height="23" viewBox="0 0 44 23" fill="none" xmlns="http://www.w3.org/2000/svg">
<path d="M0.657397 22.598C0.246524 22.598 0 22.3515 0 21.9406V0.657397C0 0.246524 0.246524 0 0.657397 0H2.46524C2.87611 0 3.12264 0.246524 3.12264 0.657397V9.86096H8.29964L17.2567 0.410873C17.5032 0.164349 17.7497 0.0821746 18.0784 0.0821746H20.3793C20.6258 0.0821746 20.8724 0.164349 20.8724 0.328699C20.8724 0.493048 20.8724 0.657397 20.708 0.903921L10.9292 11.2579L20.708 21.7763C20.8724 22.0228 20.9545 22.1872 20.8724 22.3515C20.7902 22.5159 20.6258 22.598 20.3793 22.598H18.0784C17.7497 22.598 17.5032 22.5159 17.2567 22.2693L8.29964 12.8192H3.12264V21.9406C3.12264 22.3515 2.87611 22.598 2.46524 22.598H0.657397Z" fill="#363F4C"></path>
<path d="M30.1119 22.6026C27.4823 22.6026 25.5923 22.0274 24.4418 20.9592C23.2914 19.8909 22.634 18.083 22.5518 15.6178C22.5518 15.2069 22.7983 14.9604 23.2092 14.9604H25.0171C25.4279 14.9604 25.6745 15.2069 25.6745 15.6178C25.7566 17.0969 26.1675 18.1652 26.7427 18.7404C27.4001 19.3157 28.4684 19.5622 30.1119 19.5622H36.1928C37.9185 19.5622 39.1511 19.3157 39.8085 18.8226C40.4659 18.3296 40.7946 17.4256 40.7946 16.193C40.7946 14.9604 40.4659 14.2208 39.8907 13.81C39.3154 13.3991 38.165 13.1526 36.6037 12.9882L29.6188 12.413C27.0714 12.2486 25.2636 11.6734 24.1953 10.8517C23.127 10.0299 22.634 8.55078 22.634 6.49642C22.634 4.2777 23.2092 2.71638 24.4418 1.64811C25.5923 0.579841 27.6466 0.086792 30.4406 0.086792H36.1106C38.7402 0.086792 40.6302 0.662015 41.7807 1.73028C42.9311 2.79856 43.5885 4.6064 43.6707 7.07164C43.6707 7.48251 43.4242 7.72904 43.0133 7.72904H41.1233C40.7124 7.72904 40.4659 7.48251 40.4659 7.07164C40.3837 5.59249 39.9728 4.52422 39.3976 3.949C38.7402 3.37378 37.672 3.12725 36.0285 3.12725H30.4406C28.6327 3.12725 27.4001 3.37378 26.7427 3.86683C26.0853 4.35988 25.7566 5.2638 25.7566 6.49642C25.7566 7.64686 26.0853 8.46861 26.6606 8.87948C27.2358 9.29035 28.3862 9.53688 29.9475 9.70123L36.9324 10.2764C39.4798 10.4408 41.2055 11.016 42.3559 11.9199C43.5064 12.8239 43.9994 14.303 43.9994 16.2752C43.9994 18.4939 43.4242 20.1374 42.1916 21.1235C41.0411 22.1918 38.9867 22.6848 36.1928 22.6848H30.1119V22.6026Z" fill="#3B82E0"></path>
</svg></svg></g></svg>