<svg width="1647" height="751" viewBox="0 0 1647 751" fill="none" xmlns="http://www.w3.org/2000/svg">
<path d="M578.976 612.252H479.912V738.887H363.236V612.252H0V580.318L232.251 12.1129H352.229L146.395 512.045H363.236V288.507H479.912V512.045H578.976V612.252Z" fill="#454E5A"/>
<path d="M942.788 751C881.148 751 829.414 734.115 787.587 700.346C746.494 666.577 715.674 621.062 695.127 563.801C675.314 505.806 665.408 440.836 665.408 368.893C665.408 258.776 688.89 169.948 735.854 102.409C782.817 34.1364 851.796 0 942.788 0C1033.78 0 1102.39 33.7693 1148.62 101.308C1195.59 168.847 1219.07 258.042 1219.07 368.893C1219.07 440.836 1209.16 505.806 1189.35 563.801C1169.54 621.062 1138.72 666.577 1096.89 700.346C1055.79 734.115 1004.43 751 942.788 751ZM942.788 644.186C996.356 644.186 1035.61 619.96 1060.56 571.509C1085.51 523.057 1097.99 455.886 1097.99 369.994C1097.99 194.541 1046.26 106.814 942.788 106.814C838.587 106.814 786.487 194.541 786.487 369.994C786.487 455.886 798.961 523.057 823.911 571.509C849.594 619.96 889.22 644.186 942.788 644.186Z" fill="#454E5A"/>
<path d="M1885 612.252H1785.94V738.887H1669.26V612.252H1306.02V580.318L1538.27 12.1129H1658.25L1452.42 512.045H1669.26V288.507H1785.94V512.045H1885V612.252Z" fill="#454E5A"/>
</svg>
