<svg width="1788" height="345" viewBox="0 0 1788 345" fill="none" xmlns="http://www.w3.org/2000/svg">
<path d="M7.42453 273.775C2.7842 273.775 0 270.991 0 266.35V25.9812C0 21.3408 2.7842 18.5566 7.42453 18.5566H27.842C32.4823 18.5566 35.2665 21.3408 35.2665 25.9812V129.925H93.7347L194.894 23.197C197.678 20.4128 200.462 19.4847 204.175 19.4847H230.16C232.945 19.4847 235.729 20.4128 235.729 22.2689C235.729 24.125 235.729 25.9812 233.873 28.7654L123.433 145.702L233.873 264.494C235.729 267.279 236.657 269.135 235.729 270.991C234.801 272.847 232.945 273.775 230.16 273.775H204.175C200.462 273.775 197.678 272.847 194.894 270.063L93.7347 163.335H35.2665V266.35C35.2665 270.991 32.4823 273.775 27.842 273.775H7.42453Z" fill="white"/>
<path d="M292.329 273.78C287.689 273.78 284.905 270.995 284.905 266.355V6.49647C284.905 2.7842 287.689 0 292.329 0H311.819C316.459 0 319.243 2.7842 319.243 7.42453V267.283C319.243 271.924 316.459 274.708 311.819 274.708H292.329V273.78Z" fill="white"/>
<path d="M542.956 78.8868C542.956 74.2464 545.74 71.4622 550.38 71.4622H569.87C574.51 71.4622 577.294 74.2464 577.294 78.8868V267.284C577.294 271.925 574.51 274.709 569.87 274.709H550.38C545.74 274.709 542.956 271.925 542.956 267.284V247.795C534.603 265.428 516.042 274.709 485.416 274.709H451.077C422.307 274.709 402.818 268.212 392.609 256.148C382.4 243.155 376.832 222.737 376.832 194.895V77.9587C376.832 73.3184 379.616 70.5342 384.257 70.5342H403.746C408.386 70.5342 411.171 73.3184 411.171 77.9587V196.751C411.171 215.313 413.955 227.377 419.523 232.946C425.092 238.514 436.228 241.298 452.933 241.298H502.121C517.898 241.298 528.107 238.514 534.603 232.946C541.1 227.377 543.884 215.313 543.884 196.751V78.8868H542.956Z" fill="white"/>
<path d="M771.226 71.4611C799.996 71.4611 819.485 77.9576 830.622 90.0225C840.831 102.087 846.399 123.433 846.399 151.275V194.894C846.399 222.736 840.831 242.225 830.622 255.218C820.413 267.283 800.924 273.78 771.226 273.78H728.535C697.908 273.78 679.347 265.427 670.995 247.794V267.283C670.995 271.924 668.21 274.708 663.57 274.708H644.081C639.44 274.708 636.656 271.924 636.656 267.283V7.42453C636.656 2.7842 639.44 0 644.081 0H663.57C668.21 0 670.995 2.7842 670.995 7.42453V97.447C679.347 79.8137 697.908 71.4611 728.535 71.4611H771.226ZM811.133 197.678V148.491C811.133 129.929 808.348 117.864 802.78 112.296C797.212 106.728 786.075 103.943 769.37 103.943H710.901C696.052 103.943 684.915 106.728 678.419 113.224C671.923 118.793 669.138 130.857 669.138 149.419V198.606C669.138 216.24 671.923 228.304 678.419 234.801C684.915 240.369 695.124 243.153 710.901 243.153H770.298C787.003 243.153 798.14 240.369 803.708 234.801C809.276 227.376 811.133 215.311 811.133 197.678Z" fill="white"/>
<path d="M988.005 273.826C958.307 273.826 936.961 267.33 923.968 255.265C910.975 243.2 903.551 222.783 902.623 194.941C902.623 190.3 905.407 187.516 910.047 187.516H930.465C935.105 187.516 937.889 190.3 937.889 194.941C938.817 211.646 943.458 223.711 949.954 230.207C957.379 236.704 969.444 239.488 988.005 239.488H1056.68C1076.17 239.488 1090.09 236.704 1097.52 231.135C1104.94 225.567 1108.65 215.358 1108.65 201.437C1108.65 187.516 1104.94 179.164 1098.44 174.523C1091.95 169.883 1078.96 167.099 1061.32 165.243L982.437 158.746C953.666 156.89 933.249 150.394 921.184 141.113C909.119 131.832 903.551 115.127 903.551 91.9254C903.551 66.8676 910.047 49.2343 923.968 37.1694C936.961 25.1045 960.163 19.5361 991.717 19.5361H1055.75C1085.45 19.5361 1106.8 26.0326 1119.79 38.0975C1132.78 50.1623 1140.21 70.5798 1141.14 98.4218C1141.14 103.062 1138.35 105.846 1133.71 105.846H1112.37C1107.73 105.846 1104.94 103.062 1104.94 98.4218C1104.01 81.7166 1099.37 69.6517 1092.88 63.1553C1085.45 56.6588 1073.39 53.8746 1054.83 53.8746H991.717C971.3 53.8746 957.379 56.6588 949.954 62.2272C942.53 67.7956 938.817 78.0044 938.817 91.9254C938.817 104.918 942.53 114.199 949.026 118.839C955.523 123.48 968.516 126.264 986.149 128.12L1065.03 134.616C1093.8 136.473 1113.29 142.969 1126.29 153.178C1139.28 163.386 1144.85 180.092 1144.85 202.365C1144.85 227.423 1138.35 245.984 1124.43 257.121C1111.44 269.186 1088.24 274.754 1056.68 274.754H988.005V273.826Z" fill="white"/>
<path d="M1293.35 273.828C1262.72 273.828 1241.38 268.259 1230.24 256.194C1219.11 244.13 1213.54 224.64 1213.54 197.726V102.135H1190.34C1185.7 102.135 1182.91 99.3512 1182.91 94.7108V78.0057C1182.91 73.3653 1185.7 70.5811 1190.34 70.5811C1198.69 70.5811 1204.26 70.5811 1207.97 69.653C1211.68 68.725 1214.47 66.8688 1217.25 63.1566C1220.03 59.4443 1221.89 55.7321 1221.89 50.1637C1222.82 45.5233 1222.82 37.1707 1222.82 26.0339C1222.82 21.3936 1225.6 18.6094 1230.24 18.6094H1239.52C1244.16 18.6094 1246.95 21.3936 1246.95 26.0339V70.5811H1330.47C1335.11 70.5811 1337.9 73.3653 1337.9 78.0057V94.7108C1337.9 99.3512 1335.11 102.135 1330.47 102.135H1246.95V199.582C1246.95 216.288 1249.73 227.424 1256.23 232.993C1262.72 238.561 1274.79 242.273 1292.42 242.273H1329.55C1334.19 242.273 1336.97 245.058 1336.97 249.698V266.403C1336.97 271.043 1334.19 273.828 1329.55 273.828H1293.35Z" fill="white"/>
<path d="M1478.05 70.5889H1511.46C1516.11 70.5889 1518.89 73.3731 1518.89 78.0134V95.6467C1518.89 100.287 1516.11 103.071 1511.46 103.071H1462.28C1447.43 103.071 1436.29 105.855 1429.79 112.352C1423.3 117.92 1420.51 129.985 1420.51 148.546V267.339C1420.51 271.979 1417.73 274.764 1413.09 274.764H1393.6C1388.96 274.764 1386.18 271.979 1386.18 267.339V78.0134C1386.18 73.3731 1388.96 70.5889 1393.6 70.5889H1413.09C1417.73 70.5889 1420.51 73.3731 1420.51 78.0134V97.5028C1428.87 79.8695 1447.43 70.5889 1478.05 70.5889Z" fill="white"/>
<path d="M1623.72 273.834C1594.95 273.834 1575.46 267.338 1564.32 255.273C1554.12 243.208 1548.55 221.862 1548.55 194.02V150.401C1548.55 122.559 1554.12 103.07 1564.32 90.077C1574.53 78.0121 1594.95 71.5156 1623.72 71.5156H1684.05C1712.82 71.5156 1732.3 78.0121 1743.44 90.077C1753.65 102.142 1759.22 122.559 1759.22 150.401V194.02C1759.22 222.79 1753.65 243.208 1743.44 255.273C1733.23 267.338 1713.74 273.834 1684.05 273.834H1623.72ZM1623.72 241.352H1682.19C1698.89 241.352 1710.03 238.568 1715.6 232.999C1721.17 227.431 1723.95 215.366 1723.95 196.805V147.617C1723.95 129.984 1721.17 117.919 1715.6 111.422C1710.03 105.854 1698.89 103.07 1682.19 103.07H1623.72C1607.02 103.07 1595.88 105.854 1590.31 111.422C1584.74 116.991 1581.96 129.056 1581.96 147.617V196.805C1581.96 215.366 1584.74 227.431 1590.31 232.999C1595.88 238.568 1607.02 241.352 1623.72 241.352Z" fill="white"/>
</svg>
