<svg width="218" height="38" viewBox="0 0 218 38" fill="none" xmlns="http://www.w3.org/2000/svg">
<path d="M0.797874 29.4211C0.299203 29.4211 0 29.1219 0 28.6232V2.79201C0 2.29334 0.299203 1.99414 0.797874 1.99414H2.99203C3.4907 1.99414 3.7899 2.29334 3.7899 2.79201V13.9623H10.0732L20.9442 2.49281C21.2434 2.19361 21.5426 2.09387 21.9415 2.09387H24.7341C25.0333 2.09387 25.3325 2.19361 25.3325 2.39308C25.3325 2.59255 25.3325 2.79201 25.133 3.09122L13.2647 15.6577L25.133 28.4237C25.3325 28.7229 25.4322 28.9224 25.3325 29.1219C25.2328 29.3213 25.0333 29.4211 24.7341 29.4211H21.9415C21.5426 29.4211 21.2434 29.3213 20.9442 29.0221L10.0732 17.5527H3.7899V28.6232C3.7899 29.1219 3.4907 29.4211 2.99203 29.4211H0.797874Z" fill="#363F4C"/>
<path d="M31.4151 29.4216C30.9164 29.4216 30.6172 29.1224 30.6172 28.6237V0.69814C30.6172 0.299203 30.9164 0 31.4151 0H33.5095C34.0082 0 34.3074 0.299203 34.3074 0.797874V28.7235C34.3074 29.2222 34.0082 29.5214 33.5095 29.5214H31.4151V29.4216Z" fill="#363F4C"/>
<path d="M58.3485 8.47769C58.3485 7.97902 58.6477 7.67981 59.1464 7.67981H61.2408C61.7395 7.67981 62.0387 7.97902 62.0387 8.47769V28.7237C62.0387 29.2224 61.7395 29.5216 61.2408 29.5216H59.1464C58.6477 29.5216 58.3485 29.2224 58.3485 28.7237V26.6293C57.4509 28.5243 55.4562 29.5216 52.165 29.5216H48.4748C45.3831 29.5216 43.2887 28.8235 42.1916 27.5269C41.0945 26.1307 40.4961 23.9365 40.4961 20.9445V8.37795C40.4961 7.87928 40.7953 7.58008 41.294 7.58008H43.3884C43.8871 7.58008 44.1863 7.87928 44.1863 8.37795V21.1439C44.1863 23.1386 44.4855 24.4352 45.0839 25.0336C45.6823 25.632 46.8791 25.9312 48.6743 25.9312H53.9602C55.6557 25.9312 56.7528 25.632 57.4509 25.0336C58.1491 24.4352 58.4483 23.1386 58.4483 21.1439V8.47769H58.3485Z" fill="#363F4C"/>
<path d="M82.8794 7.67954C85.9712 7.67954 88.0656 8.37768 89.2624 9.67423C90.3595 10.9708 90.9579 13.2647 90.9579 16.2567V20.9442C90.9579 23.9362 90.3595 26.0307 89.2624 27.4269C88.1654 28.7235 86.0709 29.4216 82.8794 29.4216H78.2917C75.0004 29.4216 73.0058 28.524 72.1081 26.6291V28.7235C72.1081 29.2222 71.8089 29.5214 71.3103 29.5214H69.2158C68.7172 29.5214 68.418 29.2222 68.418 28.7235V0.797874C68.418 0.299203 68.7172 0 69.2158 0H71.3103C71.8089 0 72.1081 0.299203 72.1081 0.797874V10.4721C73.0058 8.57715 75.0004 7.67954 78.2917 7.67954H82.8794ZM87.168 21.2434V15.9575C87.168 13.9628 86.8688 12.6663 86.2704 12.0679C85.672 11.4694 84.4752 11.1702 82.68 11.1702H76.3967C74.801 11.1702 73.6042 11.4694 72.906 12.1676C72.2079 12.766 71.9087 14.0625 71.9087 16.0572V21.3431C71.9087 23.2381 72.2079 24.5346 72.906 25.2328C73.6042 25.8312 74.7012 26.1304 76.3967 26.1304H82.7797C84.5749 26.1304 85.7717 25.8312 86.3701 25.2328C86.9685 24.4349 87.168 23.1384 87.168 21.2434Z" fill="#363F4C"/>
<path d="M106.176 29.4268C102.984 29.4268 100.69 28.7287 99.2939 27.4321C97.8976 26.1356 97.0997 23.9414 97 20.9494C97 20.4507 97.2992 20.1515 97.7979 20.1515H99.992C100.491 20.1515 100.79 20.4507 100.79 20.9494C100.89 22.7446 101.388 24.0412 102.086 24.7393C102.884 25.4374 104.181 25.7366 106.176 25.7366H113.556C115.65 25.7366 117.146 25.4374 117.944 24.839C118.742 24.2406 119.141 23.1435 119.141 21.6475C119.141 20.1515 118.742 19.2539 118.044 18.7552C117.346 18.2566 115.95 17.9574 114.055 17.7579L105.577 17.0598C102.485 16.8603 100.291 16.1621 98.9947 15.1648C97.6981 14.1675 97.0997 12.3722 97.0997 9.87889C97.0997 7.18606 97.7979 5.29111 99.2939 3.99456C100.69 2.69802 103.184 2.09961 106.574 2.09961H113.456C116.648 2.09961 118.942 2.79775 120.338 4.0943C121.734 5.39084 122.532 7.585 122.632 10.577C122.632 11.0757 122.333 11.3749 121.834 11.3749H119.54C119.041 11.3749 118.742 11.0757 118.742 10.577C118.642 8.78181 118.144 7.48526 117.446 6.78712C116.648 6.08898 115.351 5.78978 113.356 5.78978H106.574C104.38 5.78978 102.884 6.08898 102.086 6.68739C101.289 7.2858 100.89 8.38287 100.89 9.87889C100.89 11.2752 101.289 12.2725 101.987 12.7712C102.685 13.2699 104.081 13.5691 105.976 13.7685L114.454 14.4667C117.545 14.6661 119.64 15.3643 121.036 16.4614C122.432 17.5584 123.031 19.3536 123.031 21.7473C123.031 24.4401 122.333 26.4348 120.837 27.6316C119.44 28.9281 116.947 29.5265 113.556 29.5265H106.176V29.4268Z" fill="#363F4C"/>
<path d="M138.989 29.4269C135.698 29.4269 133.404 28.8285 132.208 27.532C131.011 26.2354 130.412 24.141 130.412 21.2487V10.9761H127.919C127.42 10.9761 127.121 10.6769 127.121 10.1782V8.383C127.121 7.88433 127.42 7.58512 127.919 7.58512C128.817 7.58512 129.415 7.58512 129.814 7.48539C130.213 7.38565 130.512 7.18618 130.811 6.78725C131.11 6.38831 131.31 5.98937 131.31 5.39097C131.41 4.8923 131.41 3.99469 131.41 2.79787C131.41 2.2992 131.709 2 132.208 2H133.205C133.704 2 134.003 2.2992 134.003 2.79787V7.58512H142.979C143.478 7.58512 143.777 7.88433 143.777 8.383V10.1782C143.777 10.6769 143.478 10.9761 142.979 10.9761H134.003V21.4482C134.003 23.2434 134.302 24.4402 135 25.0386C135.698 25.637 136.995 26.036 138.89 26.036H142.879C143.378 26.036 143.677 26.3352 143.677 26.8338V28.6291C143.677 29.1277 143.378 29.4269 142.879 29.4269H138.989Z" fill="#363F4C"/>
<path d="M158.839 7.58594H162.429C162.928 7.58594 163.227 7.88514 163.227 8.38381V10.2788C163.227 10.7774 162.928 11.0766 162.429 11.0766H157.143C155.547 11.0766 154.351 11.3758 153.652 12.074C152.954 12.6724 152.655 13.9689 152.655 15.9636V28.7296C152.655 29.2283 152.356 29.5275 151.857 29.5275H149.763C149.264 29.5275 148.965 29.2283 148.965 28.7296V8.38381C148.965 7.88514 149.264 7.58594 149.763 7.58594H151.857C152.356 7.58594 152.655 7.88514 152.655 8.38381V10.4782C153.553 8.58328 155.547 7.58594 158.839 7.58594Z" fill="#363F4C"/>
<path d="M174.493 29.4276C171.401 29.4276 169.306 28.7295 168.11 27.4329C167.012 26.1364 166.414 23.8425 166.414 20.8505V16.163C166.414 13.1709 167.012 11.0765 168.11 9.68023C169.207 8.38369 171.401 7.68555 174.493 7.68555H180.975C184.067 7.68555 186.161 8.38369 187.358 9.68023C188.455 10.9768 189.054 13.1709 189.054 16.163V20.8505C189.054 23.9422 188.455 26.1364 187.358 27.4329C186.261 28.7295 184.167 29.4276 180.975 29.4276H174.493ZM174.493 25.9369H180.776C182.571 25.9369 183.768 25.6377 184.366 25.0393C184.965 24.4409 185.264 23.1444 185.264 21.1497V15.8638C185.264 13.9688 184.965 12.6723 184.366 11.9741C183.768 11.3757 182.571 11.0765 180.776 11.0765H174.493C172.697 11.0765 171.501 11.3757 170.902 11.9741C170.304 12.5725 170.004 13.8691 170.004 15.8638V21.1497C170.004 23.1444 170.304 24.4409 170.902 25.0393C171.501 25.6377 172.697 25.9369 174.493 25.9369Z" fill="#363F4C"/>
<path d="M198.328 37.0076C197.83 37.0076 197.531 36.7084 197.531 36.2097V34.4145C197.531 33.9158 197.83 33.6166 198.328 33.6166H208.701C210.496 33.6166 211.693 33.2177 212.291 32.5195C212.89 31.8214 213.289 30.5248 213.289 28.7296V25.5381C212.89 26.6352 212.192 27.3333 211.294 27.832C210.396 28.3307 209 28.5301 207.205 28.5301H203.016C199.924 28.5301 197.83 27.832 196.633 26.5355C195.436 25.2389 194.938 22.945 194.938 19.953V8.38381C194.938 7.88514 195.237 7.58594 195.735 7.58594H197.83C198.328 7.58594 198.628 7.88514 198.628 8.38381V20.3519C198.628 22.3466 198.927 23.6432 199.525 24.2416C200.124 24.84 201.32 25.1392 203.116 25.1392H209C210.596 25.1392 211.793 24.84 212.391 24.1418C213.089 23.5434 213.388 22.2469 213.388 20.2522V8.38381C213.388 7.88514 213.688 7.58594 214.186 7.58594H216.281C216.779 7.58594 217.079 7.88514 217.079 8.38381V28.4304C217.079 31.3227 216.48 33.4171 215.283 34.9131C214.086 36.3094 211.992 37.1073 208.9 37.1073H198.328V37.0076Z" fill="#363F4C"/>
</svg>
