<svg width="299" height="40" viewBox="0 0 299 40" fill="none" xmlns="http://www.w3.org/2000/svg">
<path d="M48.3269 11.9867L24.8472 0.133614C24.5804 5.82859e-05 24.2469 5.82859e-05 23.9467 0.133614L0.500279 11.9867C0.466927 11.9867 0.466927 12.0201 0.433575 12.0201C0.433575 12.0201 0.400223 12.0201 0.400223 12.0535L0.366871 12.0869L0.333519 12.1203L0.300167 12.1536L0.266815 12.187C0.266815 12.187 0.266815 12.187 0.233463 12.2204L0.200112 12.2538C0.200112 12.2538 0.200112 12.2872 0.16676 12.2872L0.133408 12.3206L0.100056 12.354L0.0667038 12.3874C0.0667038 12.4208 0.0333519 12.4208 0.0333519 12.4541V12.4875C0.0333519 12.5209 0.0333519 12.5209 0 12.5543V12.5877C0 12.6211 0 12.6211 0 12.6545V12.6879V12.7213C0 12.7546 0 12.7546 0 12.788V12.8214C0 12.8548 0 12.8548 0 12.8882V36.561C0 36.9283 0.200112 37.2956 0.566983 37.4625L5.2696 39.8331C5.2696 39.8331 5.2696 39.8331 5.30296 39.8331C5.30296 39.8331 5.33631 39.8331 5.33631 39.8665C5.36966 39.8665 5.36966 39.8999 5.40301 39.8999H5.43636C5.46972 39.8999 5.50307 39.8999 5.50307 39.9333H5.53642C5.56977 39.9333 5.60312 39.9333 5.60312 39.9333H5.63648H5.66983H5.70318C5.73653 39.9333 5.73653 39.9333 5.76988 39.9333C5.80323 39.9333 5.80324 39.9333 5.83659 39.9333C5.86994 39.9333 5.86994 39.9333 5.90329 39.9333C5.93664 39.9333 5.93664 39.9333 5.96999 39.9333C6.00335 39.9333 6.00335 39.9333 6.0367 39.8999C6.07005 39.8999 6.07005 39.8999 6.1034 39.8665H6.13675L10.8394 37.4959C11.1729 37.3289 11.4064 36.9617 11.4064 36.5944V18.2304L24.4803 11.6194L37.5543 18.2304V31.1854L34.8528 32.5543V19.9667C34.8528 19.5994 34.6527 19.2321 34.2858 19.0652L24.8472 14.3239C24.5804 14.1904 24.2469 14.1904 23.9467 14.3239L14.5748 19.0652C14.2413 19.2321 14.0078 19.5994 14.0078 19.9667V34.157C14.0078 34.4909 14.1746 34.8248 14.4747 35.0251C14.7749 35.192 15.1418 35.2254 15.4419 35.0585L20.1446 32.6879C20.4781 32.5209 20.7115 32.1536 20.7115 31.7864V22.9717L24.4136 21.1019L26.8817 22.3373L23.98 23.8064C23.9467 23.8064 23.9467 23.8398 23.9133 23.8398C23.9133 23.8398 23.88 23.8398 23.88 23.8732L23.8466 23.9066L23.8133 23.94L23.7799 23.9733L23.7466 24.0067C23.7466 24.0067 23.7466 24.0067 23.7132 24.0401L23.6799 24.0735C23.6799 24.0735 23.6799 24.1069 23.6465 24.1069L23.6132 24.1403L23.5798 24.1737L23.5465 24.2071C23.5465 24.2405 23.5131 24.2405 23.5131 24.2738V24.3072C23.5131 24.3406 23.5131 24.3406 23.4798 24.374V24.4074C23.4798 24.4408 23.4798 24.4408 23.4798 24.4742V24.5076V24.541C23.4798 24.5743 23.4798 24.5743 23.4798 24.6077V24.6411C23.4798 24.6745 23.4798 24.6745 23.4798 24.7079V29.4491C23.4798 29.783 23.6465 30.1169 23.9467 30.3173C24.2469 30.4842 24.6137 30.5176 24.9139 30.3506L29.6165 27.98C29.95 27.8131 30.1835 27.4458 30.1835 27.0785V22.3373C30.1835 22.3039 30.1835 22.2705 30.1835 22.2371C30.1835 22.2371 30.1835 22.2371 30.1835 22.2037C30.1835 22.1703 30.1835 22.137 30.1501 22.0702C30.1501 22.0702 30.1501 22.0702 30.1501 22.0368C30.1501 22.0034 30.1168 21.97 30.1168 21.9366V21.9032V21.8698C30.1168 21.8365 30.0834 21.8365 30.0834 21.8031C30.0834 21.8031 30.0834 21.8031 30.0834 21.7697C30.0501 21.7363 30.0501 21.7029 30.0167 21.6695C30.0167 21.6695 30.0167 21.6695 29.9834 21.6361C29.95 21.6027 29.95 21.5693 29.9167 21.5693C29.9167 21.5693 29.9167 21.5693 29.8833 21.536C29.85 21.5026 29.8166 21.4692 29.7833 21.4692C29.7499 21.4358 29.7166 21.4358 29.6832 21.4024L24.8472 19.0652C24.5804 18.9316 24.2469 18.9316 23.9467 19.0652L19.2774 21.4358C18.9439 21.6027 18.7104 21.97 18.7104 22.3373V31.1854L16.0089 32.5543V20.6011L24.4136 16.3607L32.8183 20.6011V34.1904C32.8183 34.5243 32.9851 34.8582 33.2852 35.0585C33.5854 35.2254 33.9523 35.2588 34.2524 35.0919L38.955 32.7213C39.2886 32.5543 39.522 32.187 39.522 31.8198V17.5961C39.522 17.2288 39.3219 16.8615 38.955 16.6945L24.8472 9.61609C24.5804 9.48253 24.2469 9.48253 23.9467 9.61609L9.87217 16.6945C9.53865 16.8615 9.30519 17.2288 9.30519 17.5961V35.8932L6.60368 37.2622V15.8598L24.3803 6.91158L42.1568 15.8598V38.8982C42.1568 39.2321 42.3236 39.566 42.6238 39.7663C42.7905 39.8665 42.9573 39.9333 43.1574 39.9333C43.3242 39.9333 43.4576 39.8999 43.591 39.8331L48.2936 37.4625C48.6271 37.2956 48.8606 36.9283 48.8606 36.561V12.8882C48.8939 12.4875 48.6938 12.1536 48.3269 11.9867ZM25.4142 27.8131V25.3423L28.1157 23.9733V26.4441L25.4142 27.8131ZM46.8928 35.9266L44.1913 37.2956V15.2588C44.1913 14.8915 43.9912 14.5243 43.6243 14.3573L24.8472 4.87485C24.5804 4.74129 24.2469 4.74129 23.9467 4.87485L5.16955 14.3239C4.83603 14.4909 4.60257 14.8582 4.60257 15.2254V37.2622L1.93441 35.9266V13.4892L24.4136 2.17034L46.8928 13.4892V35.9266Z" fill="#3B82E0"/>
<path d="M61.6011 0.567627H65.8368V9.58265H73.9079L80.0113 0.567627H84.9141L77.5433 11.3523L85.4811 23.8731H80.4783L74.0413 13.4558H65.8368V23.8731H61.6011V0.567627Z" fill="#363F4C"/>
<path d="M88.6494 0.567627H92.9185V20H109.561V23.8731H88.6494V0.567627Z" fill="#363F4C"/>
<path d="M112.296 0.567627H116.565V12.4875C116.565 15.0584 117.199 17.0952 118.433 18.4975C119.667 19.9332 121.534 20.6344 124.069 20.6344C126.571 20.6344 128.472 19.8998 129.706 18.4641C130.973 17.0284 131.573 15.0251 131.573 12.4541V0.567627H135.809V12.4541C135.809 16.2604 134.775 19.2321 132.674 21.3356C130.573 23.4391 127.704 24.4741 124.069 24.4741C120.434 24.4741 117.532 23.4391 115.464 21.3356C113.363 19.2321 112.329 16.2938 112.329 12.4541V0.567627H112.296Z" fill="#363F4C"/>
<path d="M140.045 0.567627H154.786C156.887 0.567627 158.622 1.10185 159.922 2.20369C161.223 3.30552 161.857 4.77464 161.857 6.57764C161.857 8.5142 161.19 9.94993 159.889 10.818C162.29 11.8865 163.491 13.8231 163.491 16.6611C163.491 18.6645 162.757 20.3339 161.323 21.7362C159.889 23.1386 158.055 23.8064 155.82 23.8064H140.011V0.567627H140.045ZM144.314 4.44075V9.84976H155.186C155.953 9.84976 156.587 9.58265 157.054 9.08182C157.521 8.54759 157.754 7.94659 157.754 7.21203C157.754 5.37564 156.687 4.47414 154.586 4.47414H144.314V4.44075ZM144.314 13.5893V20H155.687C156.854 20 157.754 19.6995 158.388 19.0985C159.022 18.4975 159.355 17.7296 159.355 16.7613C159.355 15.793 159.055 14.9917 158.455 14.4574C157.855 13.9232 157.054 13.6227 156.087 13.6227H144.314V13.5893Z" fill="#363F4C"/>
<path d="M188.805 3.23873L186.771 6.41068C184.136 4.70785 181.067 3.83973 177.532 3.83973C173.23 3.83973 171.095 4.87479 171.095 6.94491C171.095 7.74624 171.395 8.34725 172.029 8.68114C172.629 9.04841 173.563 9.28214 174.731 9.41569L181.935 10.2504C187.071 10.8848 189.639 13.1553 189.639 17.0284C189.639 19.4992 188.572 21.3689 186.47 22.6043C184.369 23.8397 181.501 24.4407 177.866 24.4407C173.33 24.4407 169.428 23.2721 166.159 20.9015L168.16 17.5626C171.229 19.6327 174.664 20.6678 178.499 20.6678C180.634 20.6678 182.368 20.3673 183.636 19.7663C184.903 19.1653 185.537 18.2638 185.537 17.0952C185.537 15.4257 184.336 14.4908 181.935 14.2237L174.33 13.389C171.896 13.1219 170.061 12.4541 168.827 11.4524C167.56 10.4508 166.96 8.94825 166.96 6.94491C166.96 4.67446 167.96 2.93823 169.961 1.76962C171.962 0.601002 174.497 0 177.599 0C182.035 0.033389 185.803 1.10184 188.805 3.23873Z" fill="#363F4C"/>
<path d="M192.107 0.567627H216.02V4.44075H206.182V23.8731H201.913V4.44075H192.074V0.567627H192.107Z" fill="#363F4C"/>
<path d="M219.489 0.567627H233.063C235.765 0.567627 237.999 1.40235 239.8 3.0718C241.568 4.74125 242.468 6.91153 242.468 9.58265C242.468 11.3857 242.035 12.9549 241.168 14.3239C240.301 15.6928 239.133 16.7279 237.666 17.4291L241.301 23.8731H236.665L233.73 18.4975H223.725V23.9065H219.456V0.567627H219.489ZM223.758 4.50753V14.591H232.896C234.497 14.591 235.798 14.1569 236.799 13.2554C237.766 12.3539 238.266 11.1519 238.266 9.61604C238.266 8.04676 237.766 6.81137 236.799 5.87647C235.831 4.97497 234.531 4.50753 232.896 4.50753H223.758Z" fill="#363F4C"/>
<path d="M267.716 3.43912C270.184 5.70957 271.451 8.6478 271.451 12.2538C271.451 15.8598 270.217 18.8314 267.716 21.0685C265.215 23.3056 262.18 24.4742 258.511 24.4742C254.875 24.4742 251.807 23.339 249.306 21.0685C246.838 18.7981 245.57 15.8598 245.57 12.2538C245.57 8.6478 246.804 5.67619 249.306 3.43912C251.807 1.16867 254.875 0.0334473 258.511 0.0334473C262.18 0.0334473 265.248 1.16867 267.716 3.43912ZM252.307 6.04346C250.673 7.57936 249.873 9.64947 249.873 12.2538C249.873 14.8582 250.673 16.9283 252.307 18.4642C253.942 20.0001 256.009 20.768 258.511 20.768C261.012 20.768 263.08 20.0001 264.748 18.4642C266.382 16.9283 267.216 14.8582 267.216 12.2538C267.216 9.64947 266.382 7.57936 264.748 6.04346C263.113 4.50757 261.012 3.73962 258.511 3.73962C256.009 3.73962 253.942 4.50757 252.307 6.04346Z" fill="#363F4C"/>
<path d="M272.786 0.567627H277.622L285.726 13.7897H286.226L294.098 0.567627H298.934L287.927 18.0635V23.8731H283.758V18.0635L272.786 0.567627Z" fill="#363F4C"/>
<path d="M61.6011 35.8264H65.57V39.8999H64.8362V36.4942H62.3682V39.8999H61.6344V35.8264H61.6011Z" fill="#363F4C"/>
<path d="M67.4375 35.8264H69.8055C70.2724 35.8264 70.6726 35.96 70.9728 36.2605C71.273 36.561 71.4397 36.9283 71.4397 37.3957C71.4397 37.8631 71.273 38.2304 70.9728 38.5309C70.6726 38.8314 70.2724 38.965 69.8055 38.965H68.1712V39.8999H67.4375V35.8264ZM68.1712 36.5276V38.2972H69.7721C70.0389 38.2972 70.2724 38.2304 70.4392 38.0635C70.6059 37.8965 70.706 37.6962 70.706 37.4291C70.706 37.162 70.6059 36.9283 70.4392 36.7613C70.2724 36.5944 70.0389 36.5276 69.7721 36.5276H68.1712Z" fill="#363F4C"/>
<path d="M77.0095 36.3272C77.443 36.7279 77.6765 37.2287 77.6765 37.8631C77.6765 38.4975 77.443 38.9983 77.0095 39.399C76.5759 39.7997 76.0422 40 75.4086 40C74.7749 40 74.2412 39.7997 73.8077 39.399C73.3741 38.9983 73.1406 38.4975 73.1406 37.8631C73.1406 37.2287 73.3741 36.7279 73.8077 36.3272C74.2412 35.9265 74.7749 35.7262 75.4086 35.7262C76.0422 35.7262 76.5759 35.9265 77.0095 36.3272ZM74.3079 36.7946C74.0078 37.0618 73.8744 37.429 73.8744 37.8965C73.8744 38.3639 74.0078 38.7312 74.3079 38.9983C74.6081 39.2654 74.9416 39.399 75.4086 39.399C75.8421 39.399 76.209 39.2654 76.5092 38.9983C76.8093 38.7312 76.9427 38.3639 76.9427 37.8965C76.9427 37.429 76.8093 37.0618 76.5092 36.7946C76.209 36.5275 75.8421 36.394 75.4086 36.394C74.9416 36.394 74.5748 36.5275 74.3079 36.7946Z" fill="#363F4C"/>
<path d="M79.4443 35.8264H83.0797V36.4942H80.2114V37.4625H82.8129V38.1303H80.2114V39.1987H83.2131V39.8999H79.4777V35.8264H79.4443Z" fill="#363F4C"/>
<path d="M85.0142 35.8264H85.7479V37.3957H87.1487L88.2159 35.8264H89.0831L87.7824 37.7296L89.1832 39.9333H88.316L87.182 38.0969H85.7479V39.9333H85.0142V35.8264Z" fill="#363F4C"/>
<path d="M90.6841 35.8264H94.8864V36.4942H93.1521V39.8999H92.4184V36.4942H90.6841V35.8264Z" fill="#363F4C"/>
<path d="M96.5874 35.8264H97.3211V38.8982L100.023 35.8264H100.756V39.8999H100.023V36.8281L97.3211 39.8999H96.5874V35.8264Z" fill="#363F4C"/>
<path d="M102.624 35.8264H104.992C105.459 35.8264 105.859 35.96 106.159 36.2605C106.459 36.561 106.626 36.9283 106.626 37.3957C106.626 37.8631 106.459 38.2304 106.159 38.5309C105.859 38.8314 105.459 38.965 104.992 38.965H103.358V39.8999H102.624V35.8264ZM103.391 36.5276V38.2972H104.992C105.259 38.2972 105.492 38.2304 105.659 38.0635C105.826 37.8965 105.926 37.6962 105.926 37.4291C105.926 37.162 105.826 36.9283 105.659 36.7613C105.492 36.5944 105.259 36.5276 104.992 36.5276H103.391Z" fill="#363F4C"/>
<path d="M112.196 36.3272C112.63 36.7279 112.863 37.2287 112.863 37.8631C112.863 38.4975 112.63 38.9983 112.196 39.399C111.762 39.7997 111.229 40 110.595 40C109.961 40 109.428 39.7997 108.994 39.399C108.561 38.9983 108.327 38.4975 108.327 37.8631C108.327 37.2287 108.561 36.7279 108.994 36.3272C109.428 35.9265 109.961 35.7262 110.595 35.7262C111.229 35.7262 111.762 35.9265 112.196 36.3272ZM109.494 36.7946C109.194 37.0618 109.061 37.429 109.061 37.8965C109.061 38.3639 109.194 38.7312 109.494 38.9983C109.795 39.2654 110.128 39.399 110.595 39.399C111.029 39.399 111.396 39.2654 111.696 38.9983C111.996 38.7312 112.129 38.3639 112.129 37.8965C112.129 37.429 111.996 37.0618 111.696 36.7946C111.396 36.5275 111.029 36.394 110.595 36.394C110.162 36.394 109.795 36.5275 109.494 36.7946Z" fill="#363F4C"/>
<path d="M114.664 35.8264H117.266C117.632 35.8264 117.933 35.9266 118.166 36.1269C118.399 36.3273 118.5 36.561 118.5 36.8949C118.5 37.2288 118.399 37.4959 118.166 37.6294C118.6 37.8298 118.8 38.1636 118.8 38.6645C118.8 38.9984 118.666 39.2989 118.433 39.566C118.166 39.7997 117.866 39.9333 117.466 39.9333H114.664V35.8264ZM115.398 36.4942V37.4291H117.299C117.432 37.4291 117.532 37.3957 117.632 37.2955C117.699 37.1954 117.766 37.0952 117.766 36.9616C117.766 36.6278 117.566 36.4942 117.199 36.4942H115.398ZM115.398 38.0969V39.2321H117.399C117.599 39.2321 117.766 39.1653 117.866 39.0651C117.966 38.965 118.033 38.8314 118.033 38.6645C118.033 38.4975 117.966 38.364 117.866 38.2638C117.766 38.1636 117.632 38.1303 117.466 38.1303H115.398V38.0969Z" fill="#363F4C"/>
<path d="M121.901 35.8264H123.302L125.037 39.8999H124.236L123.969 39.2655H121.201L120.934 39.8999H120.134L121.901 35.8264ZM122.368 36.4942L121.501 38.5977H123.669L122.835 36.4942H122.368Z" fill="#363F4C"/>
<path d="M126.771 35.8264H127.504V37.4625H130.106V35.8264H130.839V39.8999H130.106V38.1303H127.504V39.8999H126.771V35.8264Z" fill="#363F4C"/>
<path d="M132.741 35.8264H133.474V38.8982L136.176 35.8264H136.91V39.8999H136.176V36.8281L133.474 39.8999H132.741V35.8264Z" fill="#363F4C"/>
<path d="M138.811 35.8264H142.446V36.4942H139.578V37.4625H142.179V38.1303H139.578V39.1987H142.579V39.8999H138.844V35.8264H138.811Z" fill="#363F4C"/>
<path d="M147.683 35.8264H148.416V38.8982L151.118 35.8264H151.852V39.8999H151.118V36.8281L148.416 39.8999H147.683V35.8264Z" fill="#363F4C"/>
<path d="M157.054 35.8264H158.155L159.722 39.0318H159.756L161.357 35.8264H162.424V39.8999H161.69V36.7613H161.623L160.089 39.8999H159.422L157.888 36.7613H157.821V39.8999H157.088V35.8264H157.054Z" fill="#363F4C"/>
<path d="M168.06 36.3272C168.494 36.7279 168.727 37.2287 168.727 37.8631C168.727 38.4975 168.494 38.9983 168.06 39.399C167.627 39.7997 167.093 40 166.459 40C165.826 40 165.292 39.7997 164.858 39.399C164.425 38.9983 164.191 38.4975 164.191 37.8631C164.191 37.2287 164.425 36.7279 164.858 36.3272C165.292 35.9265 165.826 35.7262 166.459 35.7262C167.093 35.7262 167.627 35.9265 168.06 36.3272ZM165.359 36.7946C165.059 37.0618 164.925 37.429 164.925 37.8965C164.925 38.3639 165.059 38.7312 165.359 38.9983C165.659 39.2654 165.992 39.399 166.459 39.399C166.893 39.399 167.26 39.2654 167.56 38.9983C167.86 38.7312 167.994 38.3639 167.994 37.8965C167.994 37.429 167.86 37.0618 167.56 36.7946C167.26 36.5275 166.893 36.394 166.459 36.394C166.026 36.394 165.659 36.5275 165.359 36.7946Z" fill="#363F4C"/>
<path d="M170.528 35.8264H171.262V37.4625H173.864V35.8264H174.597V39.8999H173.864V38.1303H171.262V39.8999H170.528V35.8264Z" fill="#363F4C"/>
<path d="M176.332 35.8264H180.534V36.4942H178.8V39.8999H178.033V36.4942H176.298V35.8264H176.332Z" fill="#363F4C"/>
<path d="M183.169 35.8264H184.57L186.304 39.8999H185.504L185.237 39.2655H182.469L182.202 39.8999H181.401L183.169 35.8264ZM183.636 36.4942L182.769 38.5977H184.937L184.103 36.4942H183.636Z" fill="#363F4C"/>
<path d="M187.971 35.8264H188.805L189.739 37.4291H190.706V35.8264H191.44V37.4291H192.407L193.341 35.8264H194.175L193.041 37.7296L194.308 39.8999H193.441L192.407 38.0969H191.407V39.8999H190.706V38.0969H189.706L188.672 39.8999H187.805L189.072 37.7296L187.971 35.8264Z" fill="#363F4C"/>
<path d="M199.311 35.8264H200.045V38.8982L202.746 35.8264H203.48V39.8999H202.746V36.8281L200.045 39.8999H199.311V35.8264Z" fill="#363F4C"/>
<path d="M205.381 35.8264H206.115V37.4625H208.717V35.8264H209.45V39.8999H208.717V38.1303H206.115V39.8999H205.381V35.8264Z" fill="#363F4C"/>
<path d="M211.251 35.8264H212.085L213.019 37.4291H213.986V35.8264H214.72V37.4291H215.687L216.621 35.8264H217.455L216.321 37.7296L217.588 39.8999H216.721L215.687 38.0969H214.687V39.8999H213.953V38.0969H212.952L211.918 39.8999H211.051L212.319 37.7296L211.251 35.8264Z" fill="#363F4C"/>
<path d="M219.289 35.8264H222.924V36.4942H220.056V37.4625H222.658V38.1303H220.056V39.1987H223.058V39.8999H219.322V35.8264H219.289Z" fill="#363F4C"/>
<path d="M224.859 35.8264H225.593V37.4625H228.194V35.8264H228.928V39.8999H228.194V38.1303H225.593V39.8999H224.859V35.8264Z" fill="#363F4C"/>
<path d="M230.829 35.8264H234.464V36.4942H231.596V37.4625H234.197V38.1303H231.596V39.1987H234.597V39.8999H230.862V35.8264H230.829Z" fill="#363F4C"/>
<path d="M236.365 35.8264H238.733C239.2 35.8264 239.6 35.96 239.901 36.2605C240.201 36.561 240.367 36.9283 240.367 37.3957C240.367 37.8631 240.201 38.2304 239.901 38.5309C239.6 38.8314 239.2 38.965 238.733 38.965H237.099V39.8999H236.365V35.8264ZM237.132 36.5276V38.2972H238.733C239 38.2972 239.233 38.2304 239.4 38.0635C239.567 37.8965 239.667 37.6962 239.667 37.4291C239.667 37.162 239.567 36.9283 239.4 36.7613C239.233 36.5944 239 36.5276 238.733 36.5276H237.132Z" fill="#363F4C"/>
<path d="M242.168 35.8264H242.902V37.4625H245.504V35.8264H246.237V39.8999H245.504V38.1303H242.902V39.8999H242.168V35.8264Z" fill="#363F4C"/>
<path d="M248.138 35.8264H248.872V36.7947H250.406C250.873 36.7947 251.273 36.9283 251.574 37.2288C251.874 37.4959 252.041 37.8631 252.041 38.364C252.041 38.8314 251.874 39.1987 251.574 39.4992C251.273 39.7997 250.873 39.9333 250.406 39.9333H248.105V35.8264H248.138ZM248.872 37.4959V39.2321H250.34C250.64 39.2321 250.873 39.1653 251.04 38.9984C251.207 38.8314 251.273 38.6311 251.273 38.364C251.273 38.0635 251.207 37.8631 251.04 37.7296C250.873 37.596 250.64 37.4959 250.34 37.4959H248.872ZM252.507 35.8264H253.241V39.8999H252.507V35.8264Z" fill="#363F4C"/>
<path d="M255.042 35.8264H255.876L257.01 37.4625H257.344L258.477 35.8264H259.311L257.944 37.763L259.411 39.8999H258.544L257.344 38.1303H256.943L255.743 39.8999H254.875L256.376 37.763L255.042 35.8264Z" fill="#363F4C"/>
<path d="M268.617 36.7613L268.05 37.0951C267.716 36.6277 267.216 36.394 266.615 36.394C266.148 36.394 265.782 36.5275 265.515 36.7946C265.248 37.0618 265.115 37.429 265.115 37.8631C265.115 38.2971 265.248 38.6644 265.515 38.9315C265.782 39.1986 266.149 39.3322 266.582 39.3322C267.182 39.3322 267.683 39.0985 268.016 38.631L268.617 38.9649C268.183 39.6661 267.516 40 266.615 40C265.948 40 265.415 39.7997 265.015 39.4324C264.581 39.0317 264.381 38.5309 264.381 37.8631C264.381 37.2287 264.581 36.6945 265.015 36.2938C265.448 35.8931 265.982 35.7262 266.615 35.7262C267.516 35.7262 268.183 36.0601 268.617 36.7613Z" fill="#363F4C"/>
<path d="M270.384 35.8264H271.118V38.8982L273.82 35.8264H274.553V39.8999H273.82V36.8281L271.118 39.8999H270.384V35.8264Z" fill="#363F4C"/>
<path d="M280.623 36.7613L280.056 37.0951C279.723 36.6277 279.223 36.394 278.622 36.394C278.155 36.394 277.788 36.5275 277.522 36.7946C277.255 37.0618 277.121 37.429 277.121 37.8631C277.121 38.2971 277.255 38.6644 277.522 38.9315C277.788 39.1986 278.155 39.3322 278.589 39.3322C279.189 39.3322 279.69 39.0985 280.023 38.631L280.623 38.9649C280.19 39.6661 279.523 40 278.622 40C277.955 40 277.422 39.7997 277.021 39.4324C276.588 39.0317 276.388 38.5309 276.388 37.8631C276.388 37.2287 276.588 36.6945 277.021 36.2938C277.455 35.8931 277.989 35.7262 278.622 35.7262C279.523 35.7262 280.19 36.0601 280.623 36.7613Z" fill="#363F4C"/>
<path d="M282.124 35.8264H286.326V36.4942H284.592V39.8999H283.858V36.4942H282.124V35.8264Z" fill="#363F4C"/>
<path d="M288.027 35.8264H291.663V36.4942H288.794V37.4625H291.396V38.1303H288.794V39.1987H291.796V39.8999H288.061V35.8264H288.027Z" fill="#363F4C"/>
<path d="M293.597 35.8264H294.698L296.265 39.0318H296.299L297.9 35.8264H298.967V39.8999H298.233V36.7613H298.166L296.632 39.8999H295.965L294.431 36.7613H294.364V39.8999H293.631V35.8264H293.597Z" fill="#363F4C"/>
</svg>
