<svg width="14" height="17" viewBox="0 0 14 17" fill="none" xmlns="http://www.w3.org/2000/svg">
<path d="M13.9705 7.96079C13.7348 9.56644 13.0277 10.9342 11.9082 12.0641C11.26 12.6588 10.6708 13.313 10.0226 13.9076C9.07982 14.9186 8.13703 15.989 7.19424 17C5.19082 14.9186 3.24632 13.1345 1.41966 11.1721C0.359028 9.98272 -0.0534426 8.43654 0.00548173 6.83089C0.064406 3.38172 2.716 0.408296 6.01576 0.0514851C9.72799 -0.364794 12.9099 1.77607 13.8527 5.28471C14.0884 5.99833 13.9705 7.84186 13.9705 7.96079ZM7.01747 9.38803C8.25488 9.38803 9.31552 8.37707 9.31552 7.12823C9.31552 5.8794 8.25488 4.80896 7.0764 4.80896C5.89791 4.80896 4.77835 5.87939 4.77835 7.06876C4.77835 8.3176 5.78006 9.38803 7.01747 9.38803Z" fill="#3B82E0"/>
</svg>
