<svg width="21" height="35" viewBox="0 0 21 35" fill="none" xmlns="http://www.w3.org/2000/svg">
<path d="M12.1439 24.3841C12.1439 20.8801 15.3599 18.4321 17.8559 15.9361C19.5839 14.2081 20.9759 11.7601 20.9759 9.07212C20.9759 6.24012 19.9679 3.98412 17.9039 2.40012C15.8879 0.816123 13.4399 0.00012207 10.6079 0.00012207C5.75987 0.00012207 1.58388 2.40012 -0.00012207 6.86412L3.79188 8.97612C4.79988 5.85612 7.05587 4.32012 10.5599 4.32012C14.0639 4.32012 16.5119 6.04812 16.5119 9.26412C16.5119 12.5761 13.2959 14.8321 10.7999 17.3281C9.07187 19.0561 7.67988 21.5521 7.67988 24.3841H12.1439ZM9.88788 34.7521C11.6639 34.7521 13.0079 33.3601 13.0079 31.6321C13.0079 29.9041 11.6639 28.5121 9.88788 28.5121C8.15988 28.5121 6.76788 29.9041 6.76788 31.6321C6.76788 33.3601 8.15988 34.7521 9.88788 34.7521Z" fill="#DDE0E9"/>
</svg>
