<svg width="30" height="25" viewBox="0 0 30 25" fill="none" xmlns="http://www.w3.org/2000/svg">
<path d="M11.9539 25V19.9808C10.3642 19.8927 9.16138 19.6025 8.34547 19.1102C7.52757 18.6179 6.95423 17.8194 6.62346 16.7147C6.29268 15.61 6.12629 14.029 6.12629 11.9737H11.9539V0H0V11.3833C0 16.0863 1.01036 19.5305 3.02907 21.7179C5.04978 23.9053 8.02472 25 11.9539 25ZM30 25V19.9808C28.4103 19.8927 27.2075 19.6146 26.3916 19.1443C25.5737 18.674 24.9843 17.8754 24.6194 16.7487C24.2546 15.622 24.0742 14.031 24.0742 11.9757H30V0H17.98V11.3833C17.98 16.0863 18.9843 19.5305 20.993 21.7179C23.0017 23.9053 26.0047 25 30 25Z" fill="#3B82E0"/>
</svg>
